<svg xmlns="http://www.w3.org/2000/svg" version="1.1" xmlns:xlink="http://www.w3.org/1999/xlink" xmlns:svgjs="http://svgjs.dev/svgjs" width="100%" height="100%" viewBox="0 0 1000 600"><rect width="1000" height="600" x="0" y="0" fill="#ffffff"/><g><circle r="166.66666666666666" cx="379.91787211100257" cy="402.14008999670546" fill="#292666" transform="matrix(0.586163115914901,0,0,0.5861631159149011,0,64.28029607301602)"/><path d="M446.7364257929908 454.9635145911033L446.7364257929908 454.9635145911033Q446.7364257929908 455.50252897748624 446.8519288757872 456.19554747426446Q447.00593298618236 456.8885659710427 447.00593298618236 457.42758035742565L447.00593298618236 457.42758035742565Q447.00593298618236 462.16320675207646 444.5033661922612 465.3587920427758Q442.00079939834 468.5158763058763 438.11219561086256 468.5158763058763L438.11219561086256 468.5158763058763Q435.3401216237499 468.5158763058763 432.56804763663723 466.0518105395539Q429.79597364952457 463.5492437456328 426.9083965796155 459.3911327649638Q423.9823184821077 455.2330217842948 420.671230108612 449.80437689286583Q417.32164070751753 444.41423302903564 413.16352972684854 438.6005778616188L413.16352972684854 438.6005778616188Q407.6193817526232 432.47891447341163 400.1501823984585 424.470700732864Q392.68098304429384 416.4239859647174 383.5177384757825 405.8747044026498L383.5177384757825 405.8747044026498Q370.1963829266022 425.54872950563 360.49412397170784 433.86495146696797L360.49412397170784 433.86495146696797L344.70870265620516 454.9635145911033Q341.9366286690925 459.6606399581553 338.6255402955968 464.781276628794Q335.27595089450233 469.90191329943264 331.3873471070248 476.0235766876398L331.3873471070248 476.0235766876398Q328.9232813407025 477.1401064880046 325.034677553225 477.1401064880046L325.034677553225 477.1401064880046Q318.3739997786348 477.1401064880046 315.60192579152215 474.4835355836883Q312.8298518044095 471.8654657069708 312.8298518044095 466.590824925937L312.8298518044095 466.590824925937Q313.3688661907925 464.9352807391891 316.1409401779052 460.623165648125Q318.91301416501784 456.3495515846596 321.83909226252564 451.88343238320033Q324.7651703600335 447.4558142093398 327.22923612635583 443.99072172544896Q329.731802920277 440.52562924155814 330.0013101134685 440.2561220483666L330.0013101134685 440.2561220483666Q334.15942109413754 435.2509884605243 339.4340618751713 429.3218302103111Q344.70870265620516 423.35417093249913 350.09884652003535 416.96300035110045Q355.5274914114643 410.6103307973006 360.64812808210297 404.2191602159019Q365.7687647527417 397.8279896345033 369.6573685402192 391.74482727389494L369.6573685402192 391.74482727389494Q366.615787359915 389.24226047997377 363.6897092624072 386.35468341006475Q360.80213219249816 383.42860531255695 356.7595242946255 379.6940056354746Q352.75541742435166 375.95940595839227 347.4807766433178 371.22377956374146Q342.206135862284 366.52665419668944 334.4674293149278 360.13548361529075L334.4674293149278 360.13548361529075Q327.53724434714616 354.5913356410654 324.7651703600335 349.3166948600316L324.7651703600335 349.3166948600316Q328.3457659267207 338.22839891158094 336.12297350167563 338.22839891158094L336.12297350167563 338.22839891158094Q336.9314950812502 338.22839891158094 338.6255402955968 338.80591432556275L338.6255402955968 338.80591432556275L357.7220499845952 355.4383582482387Q358.299565398577 356.5548880486036 360.3786208889115 358.47993942854293Q362.457676379246 360.4049908084823 364.806239062772 362.6380504092119Q367.154801746298 364.87111000994156 369.38786134702764 366.95016550027606Q371.58241992015854 369.02922099061055 372.42944252733184 370.68476517735843L372.42944252733184 370.68476517735843Q376.8570607011923 372.07080217091476 382.4012086754177 378.4234717247146L382.4012086754177 378.4234717247146Q385.44278985572186 374.57336896483594 388.9078823396127 370.68476517735843Q392.37297482350357 366.7961613898809 396.261578610981 362.9075576024034L396.261578610981 362.9075576024034L410.1219485465444 346.5446208729189Q417.32164070751753 338.53640713237127 423.1737969025332 332.83825504775075Q428.98745206995 327.14010296313023 431.49001886387117 327.14010296313023L431.49001886387117 327.14010296313023Q434.80110723736686 327.14010296313023 438.11219561086256 330.0661810606381Q441.46178501195703 332.9922591581459 441.46178501195703 336.0338403384501L441.46178501195703 336.0338403384501Q441.46178501195703 336.84236191802455 440.3452552115922 338.9214174083591Q439.2287254112274 341.0004728986936 436.4566514241147 344.46556538258443Q433.684577437002 347.93065786647526 428.98745206995 353.35930275790423Q424.2518256752992 358.7494466217344 416.7826263211345 366.52665419668944L416.7826263211345 366.52665419668944Q416.2436119347515 366.7961613898809 412.89402253365705 370.68476517735843Q409.58293416016136 374.57336896483594 405.848334483079 379.0009871386964Q402.0752337783979 383.42860531255695 398.7641454049022 387.3172091000344Q395.4530570314065 391.2058128875119 395.14504881061623 391.47532008070345L395.14504881061623 391.47532008070345L411.7774927332922 410.0328153833188Q414.2800595272134 413.65191197760475 417.4756448179127 417.1170044614956Q420.671230108612 420.5820969453864 425.09884828247255 425.2792223124385Q429.526466456333 430.0148487070893 434.80110723736686 437.0605367576673Q440.0757480184007 444.1447258358441 446.7364257929908 454.9635145911033Z " fill="#f9d342" transform="matrix(0.586163115914901,0,0,0.5861631159149011,0,64.28029607301602)"/><path d="M708.7962970356709 353.7648443827079L708.7962970356709 353.7648443827079Q707.2763808363891 354.4985970306371 704.6296302135019 354.4985970306371L704.6296302135019 354.4985970306371Q703.6862339518786 354.4985970306371 701.1443051358383 354.2365425135195Q698.6023763197982 353.94828254469024 696.0604475037578 353.5552007690139Q693.4923132360058 353.1883244450493 691.4220825507771 352.90006447622Q689.3518518655485 352.6118045073907 689.1684137035661 352.6118045073907L689.1684137035661 352.6118045073907Q683.5080361338269 352.6118045073907 674.834031617236 354.8916788063134L674.834031617236 354.8916788063134L677.6642204021055 376.1967110479706Q678.6076166637287 385.0803591782557 679.0793147945403 391.6841330096181Q679.5510129253519 398.2879068409805 679.5510129253519 402.8214499871142L679.5510129253519 402.8214499871142Q679.5510129253519 404.31516073468424 679.5510129253519 405.6516387719838Q679.5510129253519 406.9619113575716 679.3413693116579 407.9053076191948L679.3413693116579 407.9053076191948Q679.5510129253519 410.55205824208207 679.5510129253519 412.9891652512753Q679.5510129253519 415.4524777121803 679.5510129253519 417.522708397409L679.5510129253519 417.522708397409Q679.5510129253519 424.5195640044478 678.9744929876932 428.4765872129228Q678.3979730500346 432.43361042139793 677.3759604332761 434.4252247514913Q676.327742364806 436.390633629873 674.7292098103889 436.8623317606846Q673.1306772559717 437.3340298914962 671.0604465707431 437.3340298914962L671.0604465707431 437.3340298914962Q668.2302577858735 437.3340298914962 666.9986015554209 435.5520591750968Q665.7669453249684 433.7438830069857 665.4000690010039 431.2019541909454Q665.0069872253275 428.6600253749051 665.1118090321745 426.0132747520178Q665.1904253873099 423.36652412913054 665.1904253873099 421.68937521957815L665.1904253873099 421.68937521957815Q665.1904253873099 417.9157901730854 665.7669453249684 414.87595777452174Q666.3434652626271 411.86233082766984 666.3434652626271 409.21558020478255L666.3434652626271 409.21558020478255Q666.3434652626271 408.6652657188357 666.0552052937978 405.8350769339661Q665.7669453249684 403.0048881490965 665.4786853561392 398.4713450029628Q665.1904253873099 393.9378018568291 665.0069872253275 387.9891643182606Q664.8235490633454 382.0667322314039 664.8235490633454 375.2533147863474L664.8235490633454 375.2533147863474Q664.2470291256866 365.4524758461509 661.2334021788347 356.7784713295598L661.2334021788347 356.7784713295598Q657.459817132342 356.9619094915421 653.6862320858493 357.2501694603714Q649.9126470393564 357.5384294292007 646.53214376854 357.9053057531653Q643.1254350460117 358.27218207712986 640.5835062299714 358.8487020147885Q638.0415774139312 359.4252219524471 636.7050993766316 359.975536438394L636.7050993766316 359.975536438394Q629.9178873832869 359.975536438394 629.9178873832869 354.1317207066725L629.9178873832869 354.1317207066725Q629.9178873832869 351.66840824576747 631.9881180685156 348.6547812989156L631.9881180685156 348.6547812989156L662.9367565400989 342.99440372917644L672.9472390939895 341.86756930557095Q677.4545767884115 341.2910493679123 681.8046817725628 341.2910493679123L681.8046817725628 341.2910493679123Q683.5080361338269 341.2910493679123 683.4032143269799 341.212433012777Q683.3245979718447 341.10761120593 684.9231305262617 341.212433012777Q686.5216630806788 341.2910493679123 691.4220825507771 341.57930933674163Q696.3225020208754 341.86756930557095 707.8529007740478 342.6275274052118L707.8529007740478 342.6275274052118Q710.4734459452234 344.1212381527819 710.4734459452234 348.1044668129687L710.4734459452234 348.1044668129687Q710.4734459452234 351.3015319218029 708.7962970356709 353.7648443827079ZM777.4545805204705 431.8570904837393L777.4545805204705 431.8570904837393Q773.8906390876716 434.3204029446443 758.4032171260242 437.51746805347847L758.4032171260242 437.51746805347847L750.489170709074 436.0237573059084Q748.9692545097921 435.4472373682498 745.1170531081641 433.19356852103886Q741.2386462548243 430.9136942221161 737.1768012395021 426.5897946896764Q733.1149562241801 422.23968970552505 730.022712922193 415.6359158741626Q726.9042641684941 409.0321420428003 726.9042641684941 399.99126120224463L726.9042641684941 399.99126120224463Q726.9042641684941 392.6275292712413 731.0447255389515 386.8623298946551Q735.2113923611205 381.12333596978067 743.7019587157292 374.5195621384183L743.7019587157292 374.5195621384183Q748.2092964101512 373.36652226310105 752.5594013943028 373.36652226310105L752.5594013943028 373.36652226310105Q765.1904291193689 373.36652226310105 775.777431610918 381.8570886177098L775.777431610918 381.8570886177098Q784.8183124514737 394.33088363250545 784.8183124514737 409.21558020478255L784.8183124514737 409.21558020478255Q784.8183124514737 420.9294171199373 777.4545805204705 431.8570904837393ZM760.2900096492706 385.84031727789665L760.2900096492706 385.84031727789665Q757.4598208644009 384.50383924059713 754.2627557555668 384.50383924059713L754.2627557555668 384.50383924059713Q751.982881456644 384.50383924059713 749.4409526406039 385.6306736642026Q746.8990238245635 386.78371353951985 744.7239713324877 389.0373823867308Q742.5489188404122 391.2910512339418 741.2386462548243 394.802581763317Q739.9283736692366 398.2879068409805 739.9283736692366 403.0048881490965L739.9283736692366 403.0048881490965Q739.9283736692366 406.7784731955893 740.9503862859949 410.55205824208207Q741.9986043544652 414.32564328857484 744.173656846541 417.522708397409Q746.3225038869048 420.74597895795495 749.729212609433 422.7113878363366Q753.1359213319613 424.70300216643005 757.8529026400772 424.70300216643005L757.8529026400772 424.70300216643005Q762.176802172517 424.70300216643005 767.6537415802738 422.42312786750733L767.6537415802738 422.42312786750733Q772.3707228883898 416.5793121357858 772.3707228883898 408.4818275568534L772.3707228883898 408.4818275568534Q772.3707228883898 390.5572985860126 760.2900096492706 385.84031727789665ZM873.1306847200897 396.0080325420578L873.1306847200897 396.0080325420578L873.1306847200897 397.161072417375Q872.9472465581075 399.99126120224463 872.4755484272957 402.8214499871142Q872.0038502964842 405.6516387719838 870.6673722591847 408.27218394315935L870.6673722591847 408.27218394315935L866.7103490507095 416.21243581182125Q865.1904328514277 418.28266649704995 861.9933677425936 420.5363353442609Q858.7963026337595 422.81620964318364 855.1013339424019 424.7816185215653Q851.432570702756 426.7732328516587 847.7376020113986 428.0835054372465Q844.0688387717528 429.41998347454603 841.6055263108478 429.41998347454603L841.6055263108478 429.41998347454603L839.7187337876014 429.41998347454603Q838.9849811396723 429.41998347454603 837.3602431335435 429.70824344337535Q835.7617105791264 429.97029796049287 833.87491805588 430.4419960913045Q831.9881255326336 430.9136942221161 830.2061548162342 431.2019541909454Q828.3979786481232 431.4902141597747 827.2711442245177 431.4902141597747L827.2711442245177 431.4902141597747Q825.7774334769476 431.4902141597747 825.2009135392889 431.30677599779244L825.2009135392889 431.30677599779244L824.6243936016303 444.12124188484086Q824.440955439648 445.2742817601581 824.6243936016303 447.423128800522Q824.8340372153243 449.59818129259776 824.8340372153243 453.2931499839553Q824.8340372153243 456.9619132236011 824.3623390845128 462.4388526313579Q823.8906409537012 467.9157920391149 822.7376010783839 475.6464002940827L822.7376010783839 475.6464002940827Q820.6673703931551 477.14011104165274 817.8371816082856 477.14011104165274L817.8371816082856 477.14011104165274Q815.0069928234161 477.14011104165274 813.5918984309812 475.6464002940827Q812.1768040385464 474.1264840948009 811.7051059077348 472.0562534095722Q811.2334077769233 469.98602272434357 811.2334077769233 467.81097023226783Q811.2334077769233 465.6359177401921 811.2334077769233 464.32564515460433L811.2334077769233 464.32564515460433Q811.2334077769233 462.4388526313579 811.4168459389055 460.9189364320761Q811.6264895525997 459.4252256845061 811.7051059077348 457.80048767837724Q811.8099277145818 456.20195512396015 811.9933658765642 454.49860076269607Q812.1768040385464 452.8214518531437 812.1768040385464 450.3581393922387L812.1768040385464 450.3581393922387Q812.1768040385464 448.28790870701 812.0981876834112 446.2176780217813Q811.9933658765642 444.12124188484086 811.9933658765642 441.5006967136653L811.9933658765642 441.5006967136653Q811.9933658765642 436.2071954678907 812.2816258453934 432.1453504525686Q812.5698858142227 428.0835054372465 812.9367621381873 425.2533166523769L812.9367621381873 425.2533166523769Q811.9933658765642 421.4797316058841 811.9933658765642 414.69251961253946L811.9933658765642 414.69251961253946Q811.9933658765642 409.21558020478255 812.2816258453934 404.8916806723429Q812.5698858142227 400.5415756881915 813.3036384621519 397.7113869033219L813.3036384621519 397.7113869033219Q811.9933658765642 391.1076130719595 811.4168459389055 386.49545357069053Q810.8665314529587 381.8570886177098 810.8665314529587 379.23654344653426L810.8665314529587 379.23654344653426Q810.8665314529587 376.01327288598833 812.4650640073758 374.41474033157124Q814.0635965617928 372.81620777715415 817.8371816082856 372.81620777715415L817.8371816082856 372.81620777715415Q820.1170559072084 372.81620777715415 821.3225066859491 373.6547822319303Q822.5541629164015 374.5195621384183 824.2575172776658 378.29314718491105L824.2575172776658 378.29314718491105Q833.5080417319155 372.63276961517187 845.9556312949992 372.63276961517187L845.9556312949992 372.63276961517187Q858.2197826961008 372.63276961517187 865.4000764651219 377.6118054404054Q872.5541647824311 382.6170467173507 873.1306847200897 396.0080325420578ZM860.2900133813296 395.27427989412865L860.2900133813296 395.27427989412865Q860.2900133813296 385.6306736642026 849.5457781795099 384.13696291663257L849.5457781795099 384.13696291663257Q848.9692582418511 384.13696291663257 848.3141219490572 384.2155792717678Q847.6589856562634 384.32040107861485 847.0824657186047 384.32040107861485L847.0824657186047 384.32040107861485Q845.5887549710346 384.32040107861485 843.7805788029236 384.2155792717678Q841.9986080865242 384.13696291663257 839.9283774012954 383.95352475465023L839.9283774012954 383.95352475465023Q832.5646454702921 384.89692101627344 825.3843517012713 391.1076130719595L825.3843517012713 391.1076130719595Q825.5677898632534 393.5709255328645 825.6726116701004 396.40111431773414Q825.7774334769476 399.2313031026037 825.7774334769476 402.61180637342017L825.7774334769476 402.61180637342017Q825.3843517012713 406.595035033607 825.0960917324419 409.60866198045886Q824.8340372153243 412.62228892731076 824.8340372153243 414.69251961253946L824.8340372153243 414.69251961253946Q824.8340372153243 417.9157901730854 825.2009135392889 418.8591864347086Q825.5677898632534 419.8025826963318 827.2711442245177 419.8025826963318L827.2711442245177 419.8025826963318Q827.8476641621762 419.8025826963318 829.4461967165932 419.5143227275025Q831.0447292710103 419.22606275867315 832.9315217942567 418.8591864347086Q834.8183143175031 418.4661046590322 836.6264904856143 418.1778446902029Q838.4084612020138 417.9157901730854 838.9849811396723 417.9157901730854L838.9849811396723 417.9157901730854Q845.5887549710346 417.522708397409 849.729216341492 414.7973414193865Q853.8696777119494 412.0457689896521 856.2281683660074 408.56044391198867Q858.5866590200653 405.07511883432517 859.4514389265532 401.3015337878324Q860.2900133813296 397.5279487413396 860.2900133813296 395.27427989412865ZM960.2900171133886 430.17994157418696L960.2900171133886 430.17994157418696Q959.5300590137476 432.25017225941565 957.3812119733836 434.136964782662Q955.2061594813079 436.0237573059084 953.1359287960793 436.0237573059084L953.1359287960793 436.0237573059084Q950.6726163351743 436.0237573059084 949.3623437495864 434.03214297581496Q948.025865712287 432.06673409743337 947.47555122634 428.9482853437344Q946.8990312886815 425.82983659003554 946.7155931266991 421.87281338156043Q946.5321549647169 417.9157901730854 946.5321549647169 413.93256151289853L946.5321549647169 413.93256151289853Q945.772196865076 412.0457689896521 945.772196865076 409.0321420428003L945.772196865076 409.0321420428003Q945.772196865076 407.7218694572125 945.8508132202112 406.1233369027954Q945.9556350270582 404.4985988966665 945.9556350270582 403.3717644730611L945.9556350270582 403.3717644730611Q945.9556350270582 396.7679906416987 944.8288006034527 392.7061456263766Q943.7019661798472 388.6705060627662 941.893790011736 386.3906317638435Q940.1118192953368 384.13696291663257 938.041588610108 383.37700481699164Q935.9451524731676 382.6170467173507 934.0583599499212 382.6170467173507L934.0583599499212 382.6170467173507Q930.6778566791047 382.6170467173507 927.1925316014413 383.95352475465023Q923.681001072066 385.26379734023806 920.7721959320613 386.96715170150213Q917.8371853403446 388.6705060627662 915.871776461963 390.45247677916564Q913.8801621318694 392.234447495565 913.3036421942109 393.17784375718816L913.3036421942109 393.17784375718816Q912.7533277082641 395.27427989412865 912.4650677394347 399.12648129575666Q912.1768077706054 403.0048881490965 911.9933696086232 408.08874578117707Q911.8099314466408 413.19880886496935 911.6264932846584 419.12124095182617Q911.4168496709644 425.0698784903946 911.2334115089823 431.30677599779244L911.2334115089823 431.30677599779244Q910.6830970230353 434.89692288230293 905.3895957772606 434.89692288230293L905.3895957772606 434.89692288230293Q901.0394907931093 434.89692288230293 899.7292182075216 431.778474128604Q898.4189456219337 428.6600253749051 898.4189456219337 421.11285528191956L898.4189456219337 421.11285528191956Q898.4189456219337 419.22606275867315 898.4975619770689 418.4661046590322Q898.6023837839161 417.7061465593913 898.8906437527453 415.81935403614494Q899.1526982698629 413.93256151289853 899.5457800455392 409.8969219492882Q899.9126563695038 405.8350769339661 900.4891763071623 396.951428803681L900.4891763071623 396.951428803681Q900.6726144691447 392.8109674332236 900.8560526311271 389.6139023243894Q901.0394907931093 386.3906317638435 900.8560526311271 383.95352475465023L900.8560526311271 383.95352475465023Q900.8560526311271 381.8570886177098 900.8560526311271 380.546816032122Q900.8560526311271 379.23654344653426 900.6726144691447 378.29314718491105L900.6726144691447 378.29314718491105Q900.8560526311271 378.083503571217 901.0394907931093 374.9912602692299Q901.2491344068035 371.872811515531 901.6160107307678 368.0992264690382Q901.9828870547326 364.3256414225454 902.3759688304087 360.8403163448819Q902.7428451543733 357.3287858155067 903.3193650920321 356.0185132299189L903.3193650920321 356.0185132299189Q903.3193650920321 355.07511696829573 903.2145432851851 354.3151588686548Q903.1359269300497 353.5552007690139 903.1359269300497 352.6118045073907L903.1359269300497 352.6118045073907Q903.1359269300497 349.5981775605388 903.3979814471672 345.1694562212521Q903.6862414159966 340.74073488196547 904.6296376776197 336.78371167349036Q905.573033939243 332.80048301330356 907.4598264624894 329.97029422843394Q909.3466189857359 327.1401054435643 912.7533277082641 327.1401054435643L912.7533277082641 327.1401054435643Q918.230267116021 327.1401054435643 918.4137052780031 333.01012662699753L918.4137052780031 333.01012662699753Q918.0206235023268 338.4608605830427 917.0772272407037 345.6411543520637Q916.1338309790804 352.82144812108476 914.6401202315105 364.5090795845277L914.6401202315105 364.5090795845277Q913.6967239698872 367.33926836939725 913.6967239698872 374.88643846238284L913.6967239698872 374.88643846238284L913.6967239698872 378.29314718491105Q914.0636002938518 378.083503571217 915.4000783311512 377.1401073095938Q916.7103509167391 376.1967110479706 918.4923216331385 374.9912602692299Q920.3004978012495 373.75960403877735 922.3707284864784 372.71138597030716Q924.4409591717069 371.68937335354866 926.3277516949533 371.29629157787235L926.3277516949533 371.29629157787235Q930.6778566791047 370.5363334782314 935.3948379872209 370.5363334782314L935.3948379872209 370.5363334782314Q944.4357188277763 370.5363334782314 949.834041880398 375.725012917159Q955.2061594813079 380.9136923560866 957.6432664905012 392.9944055952059L957.6432664905012 392.9944055952059Q957.8529101041952 397.5279487413396 958.1149646213128 400.3581375262092Q958.4032245901421 403.18832631107875 958.6914845589713 406.67365138874226Q958.9797445278007 410.15897646640576 959.4514426586122 415.4524777121803Q959.923140789424 420.74597895795495 960.2900171133886 430.17994157418696ZM1054.0793287897613 428.6600253749051L1054.0793287897613 428.6600253749051Q1048.025869444346 434.6872792686089 1039.9283848654134 439.03738425276026Q1031.8046948347692 443.38748923691173 1023.3141284801604 443.38748923691173L1023.3141284801604 443.38748923691173Q1019.72398159565 443.38748923691173 1006.9095157086015 440.7407386140244L1006.9095157086015 440.7407386140244Q1003.5028069860732 438.4608643151017 999.7292219395806 435.0803610442852Q995.9556368930878 431.673652321757 992.8371881393889 427.24493098247035Q989.71873938569 422.81620964318364 987.7533305073082 417.81096836623834Q985.7617161772148 412.80572708929304 985.7617161772148 407.32878768153614L985.7617161772148 407.32878768153614L985.7617161772148 407.5384312952302Q985.9451543391972 405.8350769339661 986.1547979528912 403.5552026350434L986.1547979528912 403.5552026350434Q986.3382361148733 401.4849719498147 986.5216742768557 398.7596049717921Q986.7051124388381 396.0080325420578 987.0981942145143 392.234447495565L987.0981942145143 392.234447495565Q990.8717792610071 386.2071936018612 994.9074188246175 380.36337787013974Q998.9692638399397 374.5195621384183 1006.9095157086015 369.9860189922846L1006.9095157086015 369.9860189922846Q1018.9640234960091 367.15583020741497 1025.0174828414247 367.15583020741497L1025.0174828414247 367.15583020741497Q1027.8476716262942 367.15583020741497 1030.02272411837 367.4440901762443Q1032.1715711587337 367.70614469336186 1034.1631854888271 368.75436276183206Q1036.1547998189208 369.8025808303023 1038.1202086973024 371.47972973985463Q1040.1118230273958 373.18308410111877 1042.9420118122653 376.01327288598833L1042.9420118122653 376.01327288598833Q1045.012242497494 378.29314718491105 1046.1390769210996 379.31515980166955Q1047.2659113447048 380.36337787013974 1047.8424312823636 380.9136923560866Q1048.418951220022 381.49021229374523 1048.418951220022 381.8570886177098Q1048.418951220022 382.25017039338616 1048.418951220022 383.0101284930271L1048.418951220022 383.0101284930271Q1048.418951220022 389.7973404863717 1047.0038568275875 393.9378018568291Q1045.5887624351526 398.1044686789982 1041.7103555818128 400.72501385017375Q1037.831948728473 403.3717644730611 1031.0447367351283 405.3633788031545Q1024.2575247417835 407.32878768153614 1013.5132895399638 409.7921001424412L1013.5132895399638 409.7921001424412L1012.3602496646465 409.7921001424412Q1008.9797463938303 409.7921001424412 1000.3057418772391 411.312016341723L1000.3057418772391 411.312016341723Q1007.0929538705839 431.30677599779244 1022.0038558945728 431.30677599779244L1022.0038558945728 431.30677599779244Q1032.56465293441 431.30677599779244 1045.9556387591172 420.5363353442609L1045.9556387591172 420.5363353442609Q1047.2659113447048 419.40950092065543 1049.3623474816454 419.40950092065543L1049.3623474816454 419.40950092065543Q1055.2061632133668 419.40950092065543 1055.2061632133668 425.0698784903946L1055.2061632133668 425.0698784903946Q1055.2061632133668 426.956671013641 1054.0793287897613 428.6600253749051ZM1035.9451562052266 386.3906317638435L1035.9451562052266 386.3906317638435Q1030.861298573146 377.90006540923474 1024.440962903766 377.90006540923474L1024.440962903766 377.90006540923474Q1021.6107741188964 377.90006540923474 1018.4137090100621 378.6600235088756Q1015.1904384495163 379.41998160851654 1012.2816333095113 380.7302541941043Q1009.3466227177946 382.0667322314039 1006.8046939017545 383.95352475465023Q1004.2627650857141 385.84031727789665 1002.5594107244501 388.2774242870899L1002.5594107244501 388.2774242870899Q1001.7994526248092 389.7973404863717 1001.1443163320153 392.6275292712413Q1000.4891800392213 395.45771805611093 999.5457837775982 399.414741264586L999.5457837775982 399.414741264586Q1004.6296414096787 398.4713450029628 1010.7617171102295 398.1044686789982Q1016.8937928107803 397.7113869033219 1022.4755540253843 396.5845524797164Q1028.0311097882764 395.45771805611093 1031.8046948347692 393.17784375718816Q1035.578279881262 390.9241749099772 1035.9451562052266 386.3906317638435ZM1123.4975703742016 370.35289531624915L1130.2847823675463 372.0562496775133Q1132.564656666469 373.5761658767951 1132.564656666469 377.34975092328784L1132.564656666469 377.34975092328784Q1132.564656666469 384.6872774025794 1126.5111973210535 384.6872774025794L1126.5111973210535 384.6872774025794Q1123.681008536184 384.6872774025794 1120.8508197513145 383.37700481699164Q1118.0206309664447 382.0667322314039 1115.4000857952692 382.0667322314039L1115.4000857952692 382.0667322314039Q1112.3602533967055 382.0667322314039 1109.634886418683 383.19356665500936Q1106.9095194406605 384.32040107861485 1103.5028107181322 387.72710980114306L1103.5028107181322 387.72710980114306L1096.5321605628053 394.5143217944877L1096.5321605628053 398.4713450029628Q1096.5321605628053 401.3015337878324 1096.4273387559583 404.7868588654959Q1096.322516949111 408.27218394315935 1096.139078787129 412.2554126033462L1096.139078787129 412.2554126033462Q1096.322516949111 419.22606275867315 1097.842433148393 431.12333783581016L1097.842433148393 431.12333783581016Q1097.2659132107344 437.9105498291548 1091.0552211550485 437.9105498291548L1091.0552211550485 437.9105498291548Q1087.6485124325202 437.9105498291548 1086.2334180400853 436.10237366104366Q1084.8183236476505 434.3204029446443 1084.2680091617037 431.30677599779244Q1083.691489224045 428.29314905094054 1083.691489224045 424.5195640044478Q1083.691489224045 420.74597895795495 1083.3246129000806 416.7627502977681L1083.3246129000806 416.7627502977681Q1083.5080510620628 415.81935403614494 1083.5080510620628 414.5090814505572Q1083.5080510620628 413.19880886496935 1083.5080510620628 411.67889266568756L1083.5080510620628 411.67889266568756L1083.5080510620628 408.6652657188357L1082.3812166384573 394.8811981184523Q1082.1715730247633 393.9378018568291 1082.1715730247633 393.17784375718816Q1082.1715730247633 392.44409110925903 1082.1715730247633 391.6841330096181L1082.1715730247633 391.6841330096181Q1082.1715730247633 390.1642168103363 1082.5646548004395 388.2774242870899L1082.5646548004395 388.2774242870899Q1080.6778622771933 381.49021229374523 1080.6778622771933 378.29314718491105L1080.6778622771933 378.29314718491105Q1080.6778622771933 375.64639656202377 1082.1715730247633 374.41474033157124Q1083.691489224045 373.18308410111877 1087.6485124325202 373.18308410111877L1087.6485124325202 373.18308410111877Q1090.2952630554075 373.18308410111877 1091.8151792546892 374.9912602692299Q1093.3088900022594 376.77323098562925 1095.5887643011822 379.41998160851654L1095.5887643011822 379.41998160851654L1103.8696870420968 373.36652226310105Q1107.0929576026429 370.9294152539078 1109.8183245806654 370.16945715426687Q1112.5698970103997 369.40949905462594 1115.1904421815752 369.40949905462594L1115.1904421815752 369.40949905462594Q1119.173670841762 369.40949905462594 1123.4975703742016 370.35289531624915L1123.4975703742016 370.35289531624915ZM1313.5133007361408 377.5331890852701L1313.5133007361408 377.5331890852701Q1313.1202189604646 393.7543636948468 1303.1359418582856 407.5384312952302L1303.1359418582856 407.5384312952302Q1300.096109459722 410.9189345660467 1296.6107843820585 415.34765590533334Q1293.125459304395 419.8025826963318 1288.9849979339376 425.2533166523769L1288.9849979339376 425.2533166523769Q1288.2250398342967 425.64639842805326 1285.4734674045624 427.6118073064349Q1282.7481004265398 429.6034216365283 1279.2627753488764 432.06673409743337Q1275.7774502712127 434.5038411066266 1272.2659197418375 436.49545543672Q1268.7805946641743 438.4608643151017 1266.7103639789455 438.6705079287957L1266.7103639789455 438.6705079287957Q1258.5866739483013 439.6139041904189 1249.3623549457634 443.7543655608763L1249.3623549457634 443.7543655608763Q1240.6621449774607 443.7543655608763 1239.3518723918728 437.51746805347847L1239.3518723918728 437.51746805347847Q1239.5353105538552 436.390633629873 1239.5353105538552 434.89692288230293Q1239.5353105538552 433.37700668302114 1239.5353105538552 431.4902141597747L1239.5353105538552 431.4902141597747Q1239.5353105538552 422.05625154354277 1237.6485180306086 409.32040201162954Q1235.7617255073621 396.5845524797164 1235.7617255073621 381.30677413176295L1235.7617255073621 381.30677413176295Q1235.7617255073621 374.5195621384183 1236.521683607003 365.16421587732157Q1237.2816417066442 355.8350750679366 1238.775352454214 343.93779999079965L1238.775352454214 343.93779999079965Q1241.0552267531368 338.6705041967368 1248.209315070446 338.6705041967368L1248.209315070446 338.6705041967368Q1251.432585630992 338.6705041967368 1253.8696926401853 340.74073488196547L1253.8696926401853 340.74073488196547Q1264.063613356058 337.1505879974549 1273.6810141342726 337.1505879974549L1273.6810141342726 337.1505879974549Q1279.9179116416703 337.1505879974549 1285.394851049427 338.6705041967368Q1290.871790457184 340.1642149443068 1295.3005117964708 342.44408924322954Q1299.7292331357573 344.6977580904405 1302.9262982445916 347.5279468753101Q1306.1495688051375 350.3581356601797 1307.6432795527076 353.1883244450493L1307.6432795527076 353.1883244450493Q1313.5133007361408 369.9860189922846 1313.5133007361408 377.5331890852701ZM1300.305753073416 375.4629584000415L1300.305753073416 372.81620777715415Q1299.9126712977395 368.8591845686791 1298.9692750361164 365.81935217011545Q1298.0258787744933 362.80572522326355 1296.0604698961115 360.3686182140703Q1294.068855566018 357.9053057531653 1290.5835304883549 355.6516369059543Q1287.0982054106912 353.3717626070316 1281.6212660029344 350.93465559783834L1281.6212660029344 350.93465559783834Q1277.6642427944594 349.04786307459193 1272.1873033867023 349.04786307459193L1272.1873033867023 349.04786307459193Q1270.4839490254383 349.04786307459193 1267.4703220785864 349.4147393985565Q1264.4566951317347 349.7816157225211 1261.4168627331708 350.2533138533327Q1258.4032357863189 350.72501198414426 1256.0447451322611 351.1180937598206Q1253.686254478203 351.4849700837852 1253.1359399922562 351.4849700837852L1253.1359399922562 351.4849700837852Q1251.7994619549565 351.4849700837852 1251.2491474690096 351.3015319218029L1251.2491474690096 351.3015319218029Q1248.209315070446 359.21557833875306 1248.209315070446 385.44723550222034L1248.209315070446 385.44723550222034Q1248.209315070446 387.72710980114306 1248.314136877293 392.234447495565Q1248.4189586841403 396.7679906416987 1248.8906568149519 402.8214499871142Q1249.3623549457634 408.848703880818 1250.384367562522 415.74073768100965Q1251.432585630992 422.63277148120136 1253.3193781542384 429.6034216365283L1253.3193781542384 429.6034216365283Q1257.8529213003721 429.23654531256375 1274.4409722339133 419.9860208583141L1274.4409722339133 419.9860208583141Q1276.720846532836 418.8591864347086 1280.9661297101404 415.16421774335106Q1285.2114128874448 411.4954545037053 1289.5353124198846 405.73025512711905Q1293.885417404036 399.99126120224463 1297.0824825128702 392.33926930241205Q1300.305753073416 384.6872774025794 1300.305753073416 375.4629584000415L1300.305753073416 375.4629584000415ZM1403.5028219143092 428.6600253749051L1403.5028219143092 428.6600253749051Q1397.4755680206054 434.6872792686089 1389.3518779899612 439.03738425276026Q1381.228187959317 443.38748923691173 1372.7376216047082 443.38748923691173L1372.7376216047082 443.38748923691173Q1369.1736801719094 443.38748923691173 1356.3330088331493 440.7407386140244L1356.3330088331493 440.7407386140244Q1352.926300110621 438.4608643151017 1349.1527150641282 435.0803610442852Q1345.3791300176354 431.673652321757 1342.2868867156483 427.24493098247035Q1339.1684379619494 422.81620964318364 1337.1768236318562 417.81096836623834Q1335.2114147534744 412.80572708929304 1335.2114147534744 407.32878768153614L1335.2114147534744 407.32878768153614L1335.2114147534744 407.5384312952302Q1335.3948529154568 405.8350769339661 1335.578291077439 403.5552026350434L1335.578291077439 403.5552026350434Q1335.7617292394211 401.4849719498147 1335.9451674014035 398.7596049717921Q1336.1548110150975 396.0080325420578 1336.5216873390623 392.234447495565L1336.5216873390623 392.234447495565Q1340.2952723855549 386.2071936018612 1344.357117400877 380.36337787013974Q1348.418962416199 374.5195621384183 1356.3330088331493 369.9860189922846L1356.3330088331493 369.9860189922846Q1368.4137220722687 367.15583020741497 1374.4409759659723 367.15583020741497L1374.4409759659723 367.15583020741497Q1377.271164750842 367.15583020741497 1379.4462172429176 367.4440901762443Q1381.6212697349933 367.70614469336186 1383.586678613375 368.75436276183206Q1385.5782929434683 369.8025808303023 1387.5699072735617 371.47972973985463Q1389.5353161519433 373.18308410111877 1392.365504936813 376.01327288598833L1392.365504936813 376.01327288598833Q1394.4357356220416 378.29314718491105 1395.588775497359 379.31515980166955Q1396.7156099209644 380.36337787013974 1397.2659244069114 380.9136923560866Q1397.84244434457 381.49021229374523 1397.84244434457 381.8570886177098Q1397.84244434457 382.25017039338616 1397.84244434457 383.0101284930271L1397.84244434457 383.0101284930271Q1397.84244434457 389.7973404863717 1396.427349952135 393.9378018568291Q1395.0122555597004 398.1044686789982 1391.1338487063606 400.72501385017375Q1387.2816473047326 403.3717644730611 1380.4944353113879 405.3633788031545Q1373.6810178663313 407.32878768153614 1362.9367826645116 409.7921001424412L1362.9367826645116 409.7921001424412L1361.8099482409061 409.7921001424412Q1358.403239518378 409.7921001424412 1349.729235001787 411.312016341723L1349.729235001787 411.312016341723Q1356.5164469951314 431.30677599779244 1371.4273490191204 431.30677599779244L1371.4273490191204 431.30677599779244Q1381.9881460589577 431.30677599779244 1395.3791318836647 420.5363353442609L1395.3791318836647 420.5363353442609Q1396.7156099209644 419.40950092065543 1398.7858406061932 419.40950092065543L1398.7858406061932 419.40950092065543Q1404.6296563379146 419.40950092065543 1404.6296563379146 425.0698784903946L1404.6296563379146 425.0698784903946Q1404.6296563379146 426.956671013641 1403.5028219143092 428.6600253749051ZM1385.3948547814862 386.3906317638435L1385.3948547814862 386.3906317638435Q1380.284791697694 377.90006540923474 1373.8906614800253 377.90006540923474L1373.8906614800253 377.90006540923474Q1371.060472695156 377.90006540923474 1367.83720213461 378.6600235088756Q1364.6401370257759 379.41998160851654 1361.7051264340591 380.7302541941043Q1358.7963212940545 382.0667322314039 1356.2281870263023 383.95352475465023Q1353.6862582102622 385.84031727789665 1351.982903848998 388.2774242870899L1351.982903848998 388.2774242870899Q1351.2491512010688 389.7973404863717 1350.5678094565633 392.6275292712413Q1349.9126731637693 395.45771805611093 1348.969276902146 399.414741264586L1348.969276902146 399.414741264586Q1354.0793399859383 398.4713450029628 1360.211415686489 398.1044686789982Q1366.3434913870399 397.7113869033219 1371.8990471499321 396.5845524797164Q1377.4546029128242 395.45771805611093 1381.228187959317 393.17784375718816Q1385.0017730058098 390.9241749099772 1385.3948547814862 386.3906317638435ZM1492.7585904445482 370.16945715426687L1492.7585904445482 370.16945715426687Q1492.5489468308542 371.68937335354866 1491.526934214096 374.0478640076067Q1490.4787161456256 376.4063546616647 1488.6967454292262 380.17993970815746Q1486.8885692611152 383.95352475465023 1484.1632022830927 389.4042587106954Q1481.43783530507 394.8811981184523 1478.0311265825417 402.61180637342017L1478.0311265825417 402.61180637342017Q1472.5541871747848 417.33927023542674 1467.8372058666691 422.81620964318364L1467.8372058666691 422.81620964318364Q1467.077247767028 424.88644032841233 1465.583537019458 427.24493098247035Q1464.0636208201763 429.6034216365283 1461.9933901349475 431.673652321757Q1459.9231594497187 433.7438830069857 1457.3812306336786 435.0803610442852Q1454.8130963659264 436.390633629873 1452.1925511947506 436.390633629873L1452.1925511947506 436.390633629873Q1445.3791337496943 436.390633629873 1442.1820686408603 426.956671013641L1442.1820686408603 426.956671013641Q1439.718756179955 424.3099203907537 1437.7533473015737 420.5363353442609Q1435.7617329714803 416.7627502977681 1434.26802222391 413.19880886496935Q1432.7481060246282 409.60866198045886 1431.6998879561581 406.9619113575716Q1430.6778753393996 404.31516073468424 1430.4944371774172 403.7648462487374L1430.4944371774172 403.7648462487374Q1428.3980010404769 398.4713450029628 1428.3980010404769 392.6275292712413L1428.3980010404769 392.6275292712413L1428.3980010404769 391.1076130719595Q1426.327770355248 384.6872774025794 1425.384374093625 380.17993970815746Q1424.4409778320019 375.64639656202377 1424.4409778320019 372.42312600147784L1424.4409778320019 372.42312600147784Q1426.327770355248 368.8591845686791 1431.6212716010227 368.8591845686791L1431.6212716010227 368.8591845686791Q1433.5080641242691 368.8591845686791 1434.6348985478749 369.8025808303023Q1435.7617329714803 370.7459770919255 1436.416869264274 372.5279478083248Q1437.0982110087796 374.30991852472425 1437.5699091395913 377.0614909544586Q1438.041607270403 379.7868579324811 1438.775359918332 383.19356665500936L1438.775359918332 383.19356665500936Q1440.2952761176139 390.9241749099772 1442.0772468340133 396.4797306728694Q1443.8854230021243 402.06149188747327 1445.7722155253707 406.3067750647777Q1447.6590080486171 410.55205824208207 1449.624416926999 414.0373833197456Q1451.6160312570923 417.522708397409 1453.8697001043033 421.11285528191956L1453.8697001043033 421.11285528191956Q1456.5164507271904 418.28266649704995 1458.2198050884547 416.21243581182125Q1459.9231594497187 414.14220512659256 1460.945172066477 412.2554126033462Q1461.9933901349475 410.3686200800998 1462.7533482345884 408.4818275568534Q1463.5133063342291 406.595035033607 1464.0636208201763 403.9482844107197L1464.0636208201763 403.9482844107197Q1465.9504133434225 400.9346574638678 1466.8151932499104 398.3665231961158Q1467.6537677046867 395.8245943800755 1469.1736839039684 391.97239297844743Q1470.6673946515384 388.0939861251076 1473.602405243255 381.96191042455683Q1476.51121038326 375.82983472400605 1482.1715879529993 365.81935217011545L1482.1715879529993 365.81935217011545Q1483.5080659902987 363.93255964686904 1485.945172999492 363.93255964686904L1485.945172999492 363.93255964686904Q1488.7753617843614 363.93255964686904 1490.766976114455 365.9241739769625Q1492.7585904445482 367.9157883070559 1492.7585904445482 370.16945715426687Z " fill="#292666" transform="matrix(0.586163115914901,0,0,0.5861631159149011,0,64.28029607301602)"/></g></svg>